<svg class="csvg" width="39" height="39" viewBox="0 0 960 961" fill="none" xmlns="http://www.w3.org/2000/svg">
    <path d="M418.375 246.355C417.569 246.107 416.643 245.965 415.683 245.965C411.333 245.965 407.669 248.895 406.553 252.887L406.538 252.953C374.548 364.321 519.268 476.049 615.038 549.987C641.151 570.141 663.665 587.537 678.661 601.652C720.388 638.507 756.506 680.282 786.521 726.394L787.949 728.736C789.579 731.848 792.787 733.936 796.483 733.936C797.359 733.936 798.208 733.818 799.015 733.598L798.948 733.614C800.826 733.094 987.933 681.629 956.258 550.706C956.032 549.796 955.718 548.996 955.312 548.253L955.339 548.307L728.169 136.227L757.199 11.783C757.359 11.127 757.452 10.373 757.452 9.6C757.452 4.298 753.154 0 747.852 0C747.454 0 747.062 0.0239997 746.677 0.0699997L746.723 0.0659981C679.521 2.766 617.701 23.646 565.415 57.884L566.775 57.048C373.072 44.135 218.155 93.038 118.385 198.568C44.934 280.004 0 388.398 0 507.291C0 527.615 1.313 547.631 3.86 567.261L3.613 564.944C32.717 756.722 177.697 907.785 363.817 945.618L366.75 946.115C401.83 954.653 442.128 959.603 483.565 959.711H483.635C488.335 959.923 493.845 960.044 499.383 960.044C623.171 960.044 732.863 899.696 800.647 806.814L801.384 805.754C802.374 804.269 802.964 802.444 802.964 800.48C802.964 795.178 798.664 790.88 793.364 790.88C790.679 790.88 788.252 791.982 786.51 793.757C709.263 870.955 602.574 918.699 484.734 918.699C399.37 918.699 319.858 893.645 253.15 850.489L254.822 851.501C137.416 781.861 59.942 655.771 59.942 511.587C59.942 449.824 74.159 391.381 99.496 339.351L98.468 341.687C164.902 209.041 299.774 119.574 455.541 119.574C491.093 119.574 525.556 124.234 558.353 132.978L555.573 132.348C556.087 132.444 556.678 132.498 557.283 132.498C559.083 132.498 560.769 132.012 562.217 131.163L562.172 131.188L575.568 123.31C608.396 100.54 646.774 82.913 688.066 72.67L690.456 72.167L662.704 151.863C662.367 152.807 662.174 153.897 662.174 155.033C662.174 156.841 662.668 158.535 663.529 159.986L663.505 159.94L906.715 567.5C905.03 619.37 867.635 662.033 818.399 671.794L817.699 671.909C793.537 627.952 762.709 590.785 726.106 560.323L725.486 559.821C700.37 538.393 672.652 517.848 643.571 499.246L640.551 497.439C546.018 433.419 403.138 336.686 424.971 258.149C425.201 257.369 425.331 256.476 425.331 255.551C425.331 251.198 422.421 247.524 418.441 246.371L418.373 246.353L418.375 246.355Z" fill="#ACACAB"/>
</svg>